<?xml version="1.0" encoding="UTF-8" standalone="no"?>
<svg
    xmlns="http://www.w3.org/2000/svg"
    xmlns:svg="http://www.w3.org/2000/svg"
    
    xmlns:xlink="http://www.w3.org/1999/xlink"

    width="104"
    height="84"
    version="1.0">
<defs>
 <filter id="blur-effect">
<feGaussianBlur stdDeviation="0.8" />
</filter>

    <linearGradient id="outer-grad" x1="0%" y1="0%" x2="0%" y2="100%">
      <stop id="outer-start-grad" offset="0%" style="stop-color:RGB(255,255,255);stop-opacity:1" />
      <stop id="outer-end-grad" offset="100%" style="stop-color:RGB(226,232,236);stop-opacity:1" />
    </linearGradient>
     <linearGradient id="inner-grad" x1="0%" y1="0%" x2="0%" y2="100%">
      <stop id="inner-start-grad" offset="0%" style="stop-color:RGB(255,255,255);stop-opacity:1" />
      <stop id="inner-end-grad" offset="100%" style="stop-color:RGB(255,248,159);stop-opacity:1" />
    </linearGradient>
  </defs>
    
    <g pointer-events="fill" >
        <defs>
            <radialGradient id="background" cx="10%" cy="10%" r="100%" fx="10%" fy="10%">
                <stop offset="0%" stop-color="#ffffff" stop-opacity="1"/>
                <stop id="fill_el" offset="100%" stop-color="RGB(226,232,236)" stop-opacity="1"/>
            </radialGradient>
        </defs>
	
         <g id="outer" stroke="RGB(108,142,183)" fill="url(#outer-grad)" stroke-width="2.5">
            <rect id="OUTLINE"  x="2" y="2" width="100" height="80" rx="10" ry="10"  />
        </g>	
        <text 
            font-size="12" 
            id="text_name" 
            x="50" 
            y="40" 
            
            
            stroke="black">
        </text>
   

       <g id="inner" stroke="RGB(30,69,123)" fill="url(#inner-grad)"  stroke-width="1">
            <g id="serviceTask" transform="scale(1.2,1.2) translate(4,4)" >
                <polygon  id="teethForeground"  style="opacity:1;"  points="15.392,5.064 17.954,2.502 20.347,4.895 17.786,7.455 
			18.729,9.732 22.353,9.732 22.353,13.115 18.731,13.115 17.788,15.392 20.351,17.955 17.958,20.347 15.397,17.786 13.12,18.729 
			13.12,22.353 9.737,22.353 9.737,18.731 7.46,17.788 4.897,20.35 2.506,17.958 5.066,15.397 4.124,13.12 0.5,13.12 0.5,9.737 
			4.121,9.737 5.065,7.461 2.503,4.898 4.895,2.506 7.455,5.066 9.732,4.125 9.732,0.5 13.116,0.5 13.116,4.121 "/>
                <circle  id="ringForeground"  style="opacity:1;" cx="11.427" cy="11.426" r="3.714"/>
                <polygon  id="teethBackground" style="opacity:1;" points="21.392,11.064 23.954,8.502 26.347,10.895 23.786,13.455 
			24.729,15.732 28.353,15.732 28.353,19.115 24.731,19.115 23.788,21.392 26.351,23.955 23.958,26.347 21.397,23.786 19.12,24.729 
			19.12,28.353 15.737,28.353 15.737,24.731 13.46,23.788 10.897,26.35 8.506,23.958 11.066,21.397 10.124,19.12 6.5,19.12 
			6.5,15.737 10.121,15.737 11.065,13.461 8.503,10.898 10.895,8.506 13.455,11.066 15.732,10.125 15.732,6.5 19.116,6.5 
			19.116,10.121 "/>
                <circle  id="ringBackground" style="opacity:1;"  cx="17.427" cy="17.426" r="3.714"/>
            </g>
        </g>
        
          <g id="standard" stroke="RGB(30,69,123)"  stroke-width="1" opacity="0">
		<path style="opacity:1;fill:none;fill-opacity:1;stroke-linecap:round;stroke-linejoin:round;stroke-miterlimit:2.0999999;stroke-dasharray:none;stroke-opacity:1"
	        d="M 49.5,72 L 49.5,75 L 46.5,75 M 49.5,75 A 4.875,4.875 0 1 1 53.5,75" />
	</g>	
	<g id="parallel" stroke="RGB(30,69,123)" stroke-width="1" opacity="0">
		<path id="parallelpath"  fill="none"  d="M46 65 v10 M50 65 v10 M54 65 v10" />
	</g>
	<g id="sequential" stroke="RGB(30,69,123)" stroke-width="1" opacity="0">
		<path id="sequentialpath"  fill="none" d="M45,67 h10 M45,71 h10 M45,75 h10"/>
	</g>
	<g id="compensation" stroke="RGB(30,69,123)" stroke-width="1" opacity="0">
		<path id="compensationpath"  fill="none" d="M 50 70 L 55 65 L 55 75z M44.7 70 L49.7 75 L 49.7 65z"
		transform="translate(-13)" />
	</g>
	
    </g>
</svg>