<?xml version="1.0" encoding="UTF-8" standalone="no"?>
<svg
    xmlns="http://www.w3.org/2000/svg"
    xmlns:svg="http://www.w3.org/2000/svg"
    xmlns:xlink="http://www.w3.org/1999/xlink"

    version="1.0"
    width="41" height="102">
    
    <defs>
        <filter id="blur-effect">
            <feGaussianBlur stdDeviation="0.8" />
        </filter>
        <linearGradient id="outer-grad" x1="0%" y1="0%" x2="0%" y2="100%">
            <stop id="outer-start-grad" offset="0%" style="stop-color:RGB(160, 183, 211);stop-opacity:1" />
            <stop id="outer-end-grad" offset="100%" style="stop-color:RGB(108,142,183);stop-opacity:1" />
        </linearGradient>
        <linearGradient id="inner-grad" x1="0%" y1="0%" x2="0%" y2="100%">
            <stop id="inner-start-grad" offset="0%" style="stop-color:RGB(30,69,123);stop-opacity:1" />
            <stop id="inner-end-grad" offset="100%" style="stop-color:RGB(30,69,123);stop-opacity:1" />
        </linearGradient>
    </defs>
    					
<!--    <g  pointer-events="fill" >
  
        <defs>
            <radialGradient id="background" cx="10%" cy="10%" r="100%" fx="10%" fy="10%">
                <stop offset="0%" stop-color="#ffffff" stop-opacity="1"/>
                <stop id="fill_el" offset="100%" stop-color="#ffffff" stop-opacity="1"/>
            </radialGradient>
        </defs>
	
        <g id="outer" stroke="RGB(108,142,183)" fill="url(#outer-grad)" stroke-width="1" >
            <path id="OUTLINE" d="m 40.0356,54.7832 -1.298078,0 0,14.2668 -7.6,0 0,-14.2668 -1.123401,-0.0024 0.0025,-8.528412 1.120926,-0.0024 0,-14.2 7.6,0 0,14.2 1.280077,-4e-4 0.018,8.533604 z"        />
            <path d="m 0,92.2875 11.9,8.5125 0,-4.725 c 1.31534,-0.0097 2.610892,-0.120992 3.875,-0.3125 L 14.6375,88.25 c -0.893984,0.134368 -1.808488,0.215372 -2.7375,0.225 l 0,-4.7 L 0,92.2875 z M 17.3125,87.6625 19.5,94.925 c 1.225217,-0.369476 2.417256,-0.818664 3.5625,-1.35 L 19.875,86.6875 c -0.825032,0.382416 -1.679312,0.710528 -2.5625,0.975 z m 4.9,-2.275 4.1125,6.3875 C 30.781659,88.900892 34.344089,84.756552 36.4875,79.85 L 29.525,76.8125 c -1.541757,3.532724 -4.102624,6.509264 -7.3125,8.575 z m 8.2,-11.1 7.325,2.05 c 0.324289,-1.159818 0.568573,-2.346384 0.7375,-3.5625 l -7.525,-1.05 c -0.122925,0.873792 -0.304199,1.728528 -0.5375,2.5625 z" />
            <path d="m 0,8.8375 11.9,8.5125 0,-4.725 c 0.929012,0.0096 1.843516,0.09063 2.7375,0.225 L 15.775,5.3375 C 14.510892,5.145988 13.21534,5.034712 11.9,5.025 l 0,-4.7 L 0,8.8375 z m 17.3125,4.6 c 0.883188,0.264472 1.737468,0.592584 2.5625,0.975 L 23.0625,7.525 C 21.917256,6.993664 20.725217,6.544476 19.5,6.175 l -2.1875,7.2625 z m 4.9,2.275 c 3.209876,2.065736 5.770743,5.042272 7.3125,8.575 L 36.4875,21.25 C 34.344089,16.343452 30.781659,12.199108 26.325,9.325 l -4.1125,6.3875 z m 8.2,11.1 c 0.233301,0.833972 0.414575,1.688708 0.5375,2.5625 l 7.525,-1.05 c -0.168927,-1.216112 -0.413211,-2.402684 -0.7375,-3.5625 l -7.325,2.05 z" />
        </g>
        <g id="inner" stroke="RGB(30,69,123)" fill="url(#inner-grad)"  stroke-width="1">
        </g>
        <text id="text_name" x="26" y="26" />
    </g>-->
     <g pointer-events="fill" >
        <defs>
            <radialGradient id="background" cx="10%" cy="10%" r="100%" fx="10%" fy="10%">
                <stop offset="0%" stop-color="#ffffff" stop-opacity="1"/>
                <stop id="fill_el" offset="100%" stop-color="RGB(226,232,236)" stop-opacity="1"/>
            </radialGradient>
        </defs>
	
         <g id="outer" stroke="RGB(108,142,183)" fill="url(#outer-grad)" stroke-width="1">
            <path id="OUTLINE" d="m 40.0356,54.7832 -1.298078,0 0,14.2668 -7.6,0 0,-14.2668 -1.123401,-0.0024 0.0025,-8.528412 1.120926,-0.0024 0,-14.2 7.6,0 0,14.2 1.280077,-4e-4 0.018,8.533604 z"        />
            <path d="m 0,92.2875 11.9,8.5125 0,-4.725 c 1.31534,-0.0097 2.610892,-0.120992 3.875,-0.3125 L 14.6375,88.25 c -0.893984,0.134368 -1.808488,0.215372 -2.7375,0.225 l 0,-4.7 L 0,92.2875 z M 17.3125,87.6625 19.5,94.925 c 1.225217,-0.369476 2.417256,-0.818664 3.5625,-1.35 L 19.875,86.6875 c -0.825032,0.382416 -1.679312,0.710528 -2.5625,0.975 z m 4.9,-2.275 4.1125,6.3875 C 30.781659,88.900892 34.344089,84.756552 36.4875,79.85 L 29.525,76.8125 c -1.541757,3.532724 -4.102624,6.509264 -7.3125,8.575 z m 8.2,-11.1 7.325,2.05 c 0.324289,-1.159818 0.568573,-2.346384 0.7375,-3.5625 l -7.525,-1.05 c -0.122925,0.873792 -0.304199,1.728528 -0.5375,2.5625 z" />
            <path d="m 0,8.8375 11.9,8.5125 0,-4.725 c 0.929012,0.0096 1.843516,0.09063 2.7375,0.225 L 15.775,5.3375 C 14.510892,5.145988 13.21534,5.034712 11.9,5.025 l 0,-4.7 L 0,8.8375 z m 17.3125,4.6 c 0.883188,0.264472 1.737468,0.592584 2.5625,0.975 L 23.0625,7.525 C 21.917256,6.993664 20.725217,6.544476 19.5,6.175 l -2.1875,7.2625 z m 4.9,2.275 c 3.209876,2.065736 5.770743,5.042272 7.3125,8.575 L 36.4875,21.25 C 34.344089,16.343452 30.781659,12.199108 26.325,9.325 l -4.1125,6.3875 z m 8.2,11.1 c 0.233301,0.833972 0.414575,1.688708 0.5375,2.5625 l 7.525,-1.05 c -0.168927,-1.216112 -0.413211,-2.402684 -0.7375,-3.5625 l -7.325,2.05 z" />
        </g>	
        <text 
            font-size="12" 
            id="text_name" 
            x="50" 
            y="40" 
            stroke="black">
        </text>
   

       <g id="inner" stroke="RGB(30,69,123)" fill="url(#inner-grad)"  stroke-width="1">
        
        </g>
        
       
	
    </g>
</svg>
