<?xml version="1.0" encoding="UTF-8" standalone="no"?>
<svg
    xmlns="http://www.w3.org/2000/svg"
    xmlns:svg="http://www.w3.org/2000/svg"
    
    xmlns:xlink="http://www.w3.org/1999/xlink"

    width="104"
    height="84"
    version="1.0">
<defs>
 <filter id="blur-effect">
<feGaussianBlur stdDeviation="0.8" />
</filter>

    <linearGradient id="outer-grad" x1="0%" y1="0%" x2="0%" y2="100%">
      <stop id="outer-start-grad" offset="0%" style="stop-color:RGB(255,255,255);stop-opacity:1" />
      <stop id="outer-end-grad" offset="100%" style="stop-color:RGB(226,232,236);stop-opacity:1" />
    </linearGradient>
     <linearGradient id="inner-grad" x1="0%" y1="0%" x2="0%" y2="100%">
      <stop id="inner-start-grad" offset="0%" style="stop-color:RGB(255,255,255);stop-opacity:1" />
      <stop id="inner-end-grad" offset="100%" style="stop-color:RGB(255,248,159);stop-opacity:1" />
    </linearGradient>
  </defs>
    
    <g pointer-events="fill" >
        <defs>
            <radialGradient id="background" cx="10%" cy="10%" r="100%" fx="10%" fy="10%">
                <stop offset="0%" stop-color="#ffffff" stop-opacity="1"/>
                <stop id="fill_el" offset="100%" stop-color="RGB(226,232,236)" stop-opacity="1"/>
            </radialGradient>
        </defs>
	
         <g id="outer" stroke="RGB(108,142,183)" fill="url(#outer-grad)" stroke-width="2.5">
            <rect id="OUTLINE"  x="2" y="2" width="100" height="80" rx="10" ry="10"  />
         <rect x="6" y="6" width="92" height="72" rx="10" ry="10"  stroke-width="2" />
       
            
            
        </g>	
        <text 
            font-size="12" 
            id="text_name" 
            x="50" 
            y="40" 
            
            
            stroke="black">
        </text>
   

       <g id="inner" stroke="RGB(30,69,123)" fill="url(#inner-grad)"  stroke-width="1">
            
        </g>
        
          <g id="standard" stroke="RGB(30,69,123)"  stroke-width="1" opacity="0">
		<path style="opacity:1;fill:none;fill-opacity:1;stroke-linecap:round;stroke-linejoin:round;stroke-miterlimit:2.0999999;stroke-dasharray:none;stroke-opacity:1"
	        d="M 49.5,72 L 49.5,75 L 46.5,75 M 49.5,75 A 4.875,4.875 0 1 1 53.5,75" />
	</g>	
	<g id="parallel" stroke="RGB(30,69,123)" stroke-width="1" opacity="0">
		<path id="parallelpath"  fill="none"  d="M46 65 v10 M50 65 v10 M54 65 v10" />
	</g>
	<g id="sequential" stroke="RGB(30,69,123)" stroke-width="1" opacity="0">
		<path id="sequentialpath"  fill="none" d="M45,67 h10 M45,71 h10 M45,75 h10"/>
	</g>
	<g id="compensation" stroke="RGB(30,69,123)" stroke-width="1" opacity="0">
		<path id="compensationpath"  fill="none" d="M 50 70 L 55 65 L 55 75z M44.7 70 L49.7 75 L 49.7 65z"
		transform="translate(-13)" />
	</g>
	
    </g>
</svg>