<?xml version="1.0" encoding="UTF-8" standalone="no"?>
<svg xmlns:svg="http://www.w3.org/2000/svg"
    xmlns="http://www.w3.org/2000/svg"
    version="1.0"
    width="120" height="100">
    
    <defs>
        <filter id="blur-effect">
            <feGaussianBlur stdDeviation="0.8" />
        </filter>
        <linearGradient id="outer-grad" x1="0%" y1="0%" x2="0%" y2="100%">
            <stop id="outer-start-grad" offset="0%" style="stop-color:RGB(160, 183, 211);stop-opacity:1" />
            <stop id="outer-end-grad" offset="100%" style="stop-color:RGB(108,142,183);stop-opacity:1" />
        </linearGradient>
        <linearGradient id="inner-grad" x1="0%" y1="0%" x2="0%" y2="100%">
            <stop id="inner-start-grad" offset="0%" style="stop-color:RGB(30,69,123);stop-opacity:1" />
            <stop id="inner-end-grad" offset="100%" style="stop-color:RGB(30,69,123);stop-opacity:1" />
        </linearGradient>
    </defs>
    					
    <g>
  
        <defs>
            <radialGradient id="background" cx="10%" cy="10%" r="100%" fx="10%" fy="10%">
                <stop offset="0%" stop-color="#ffffff" stop-opacity="1"/>
                <stop id="fill_el" offset="100%" stop-color="#ffffff" stop-opacity="1"/>
            </radialGradient>
        </defs>
	
        <g id="outer1" stroke="RGB(108,142,183)" fill="url(#outer-grad)" stroke-width="1" transform="scale(0.4) rotate(270 220 30)">
            <path id="OUTLINE" d="m115.042,100.088997l0,-3.245193l-35.667,0l0,-19l35.667,0l0.005997,-2.808502l21.321037,0.006187l0.005966,2.802315l35.5,0l0,19l-35.5,0l0.001007,3.200195l-21.334007,0.044998z"/>
            <path d="m21.28125,0l-21.28125,29.75l11.8125,0c0.02423,3.288349 0.30248,6.527229 0.78125,9.6875l18.78125,-2.84375c-0.33592,-2.234959 -0.538429,-4.521221 -0.5625,-6.84375l11.75,0l-21.28125,-29.75zm11.5625,43.28125l-18.15625,5.46875c0.92369,3.063042 2.046659,6.04314 3.375,8.90625l17.21875,-7.96875c-0.956039,-2.06258 -1.776321,-4.19828 -2.4375,-6.40625zm5.6875,12.25l-15.96875,10.28125c7.18527,11.141647 17.54612,20.047722 29.8125,25.40625l7.59375,-17.40625c-8.83181,-3.854393 -16.273159,-10.256561 -21.4375,-18.28125zm27.75,20.5l-5.125,18.3125c2.899544,0.810722 5.865959,1.421432 8.90625,1.84375l2.625,-18.8125c-2.184479,-0.307312 -4.32132,-0.760498 -6.40625,-1.34375z"/>
            <path d="m229.90625,0l-21.28125,29.75l11.8125,0c-0.024002,2.322529 -0.226578,4.608791 -0.5625,6.84375l18.78125,2.84375c0.478775,-3.160271 0.756973,-6.399151 0.78125,-9.6875l11.75,0l-21.28125,-29.75zm-11.5,43.28125c-0.661179,2.20797 -1.481461,4.34367 -2.4375,6.40625l17.21875,7.96875c1.328339,-2.86311 2.451309,-5.843208 3.375,-8.90625l-18.15625,-5.46875zm-5.6875,12.25c-5.164337,8.024689 -12.605682,14.426857 -21.4375,18.28125l7.59375,17.40625c12.266373,-5.358528 22.627228,-14.264603 29.8125,-25.40625l-15.96875,-10.28125zm-27.75,20.5c-2.08493,0.583252 -4.221771,1.036438 -6.40625,1.34375l2.625,18.8125c3.040283,-0.422318 6.006714,-1.033028 8.90625,-1.84375l-5.125,-18.3125z"/>
        </g>
        <g id="outer2" stroke="RGB(108,142,183)" fill="url(#outer-grad)" stroke-width="1" transform="scale(0.4) rotate(-270 50 50)">
            <path id="OUTLINE" d="m115.042,100.088997l0,-3.245193l-35.667,0l0,-19l35.667,0l0.005997,-2.808502l21.321037,0.006187l0.005966,2.802315l35.5,0l0,19l-35.5,0l0.001007,3.200195l-21.334007,0.044998z"/>
            <path d="m21.28125,0l-21.28125,29.75l11.8125,0c0.02423,3.288349 0.30248,6.527229 0.78125,9.6875l18.78125,-2.84375c-0.33592,-2.234959 -0.538429,-4.521221 -0.5625,-6.84375l11.75,0l-21.28125,-29.75zm11.5625,43.28125l-18.15625,5.46875c0.92369,3.063042 2.046659,6.04314 3.375,8.90625l17.21875,-7.96875c-0.956039,-2.06258 -1.776321,-4.19828 -2.4375,-6.40625zm5.6875,12.25l-15.96875,10.28125c7.18527,11.141647 17.54612,20.047722 29.8125,25.40625l7.59375,-17.40625c-8.83181,-3.854393 -16.273159,-10.256561 -21.4375,-18.28125zm27.75,20.5l-5.125,18.3125c2.899544,0.810722 5.865959,1.421432 8.90625,1.84375l2.625,-18.8125c-2.184479,-0.307312 -4.32132,-0.760498 -6.40625,-1.34375z"/>
            <path d="m229.90625,0l-21.28125,29.75l11.8125,0c-0.024002,2.322529 -0.226578,4.608791 -0.5625,6.84375l18.78125,2.84375c0.478775,-3.160271 0.756973,-6.399151 0.78125,-9.6875l11.75,0l-21.28125,-29.75zm-11.5,43.28125c-0.661179,2.20797 -1.481461,4.34367 -2.4375,6.40625l17.21875,7.96875c1.328339,-2.86311 2.451309,-5.843208 3.375,-8.90625l-18.15625,-5.46875zm-5.6875,12.25c-5.164337,8.024689 -12.605682,14.426857 -21.4375,18.28125l7.59375,17.40625c12.266373,-5.358528 22.627228,-14.264603 29.8125,-25.40625l-15.96875,-10.28125zm-27.75,20.5c-2.08493,0.583252 -4.221771,1.036438 -6.40625,1.34375l2.625,18.8125c3.040283,-0.422318 6.006714,-1.033028 8.90625,-1.84375l-5.125,-18.3125z"/>
        </g>
        <g id="inner" stroke="RGB(30,69,123)" fill="url(#inner-grad)"  stroke-width="1">
            
        </g>
        
        <text id="text_name" x="26" y="26" />
	
    </g>
</svg>
